<svg width="266" height="65" viewBox="0 0 266 65" fill="none" xmlns="http://www.w3.org/2000/svg">
<g filter="url(#filter0_d_1_820)">
<path d="M31.0929 54.2189C45.3948 54.2189 56.9826 42.6697 56.9826 28.4196C56.9826 14.1749 45.3948 2.62573 31.0929 2.62573C16.7945 2.62573 5.20325 14.1749 5.20325 28.4196C5.20325 42.6697 16.7945 54.2189 31.0929 54.2189Z" fill="#263238"/>
<path d="M27.1135 32.7205H36.6416L39.425 34.5181H26.693L20.979 52.1178C14.6654 49.6803 8.82187 44.0277 6.37199 37.6751C3.75889 31.5204 3.75886 23.7873 6.42872 17.6079C8.93183 11.2518 14.9439 5.51435 21.3427 3.15643C26.3773 1.07955 33.1149 0.86037 38.4546 2.49359C44.582 4.24171 50.367 8.61813 53.7323 14.3309C57.4932 20.5951 58.5487 28.5544 56.2638 35.706C54.8198 40.4501 51.8412 44.9928 47.7468 48.2433L40.7129 36.5668L50.5036 42.0056C50.5585 42.0056 50.5871 41.9454 50.5585 41.8889L37.7343 30.8575L54.3194 33.3798C54.3762 33.3798 54.3991 33.3534 54.3991 33.3251L54.2927 33.242L38.6532 27.7785L54.9047 23.8669C54.9598 23.8669 54.9598 23.8157 54.9314 23.7874L38.2612 24.8692L51.3143 15.0221C51.3427 14.9691 51.2291 14.9426 51.2007 14.9973L36.5387 22.4052L44.6334 8.17636C44.6334 8.15345 44.6334 8.0933 44.582 8.12328L34.0054 20.4891L36.0349 4.24173C36.0349 4.21161 35.9782 4.18517 35.9231 4.21161L31.0588 19.9889L26.7994 3.73969C26.771 3.7131 26.7126 3.68312 26.6859 3.73969L27.8585 20.5951L17.8142 7.56997C17.7804 7.53985 17.7557 7.57002 17.7273 7.59646L25.3253 22.0109L10.9631 14.1912C10.9364 14.1912 10.8815 14.2213 10.8815 14.2459L23.6524 24.6975L7.34946 22.9829C7.29099 23.013 7.29099 23.0624 7.34946 23.089L23.1557 27.697L7.43283 32.2997C7.4026 32.3228 7.4026 32.381 7.43283 32.4058L23.6524 30.5234L10.9081 41.309C10.8814 41.309 10.8531 41.3637 10.9081 41.3956L11.0784 41.3389L21.2859 36.0133L23.6826 32.2166H26.4057L24.5164 30.8857L30.8318 20.7911L27.1064 32.715L27.1135 32.7207" fill="white" fill-opacity="0.5"/>
<path d="M74.1404 46.0099H61.4172L71.6053 9.77319H97.6866L95.2012 18.3723H81.8909L80.1843 24.5411H93.4946L91.2505 32.4562H77.942L74.1404 46.0099Z" fill="white" fill-opacity="0.5"/>
<path d="M103.583 46.0099H91.0076L98.4654 19.5371H111.041L103.583 46.0099ZM111.724 17.0113H99.1484L101.196 9.77319H113.771L111.724 17.0113Z" fill="white" fill-opacity="0.5"/>
<path d="M136.212 46.0098H123.879L124.755 43.0474C122.268 45.1349 119.735 46.6408 115.688 46.6408C111.592 46.6408 109.011 44.6965 109.011 40.5675C109.011 36.0037 110.815 29.2021 113.496 24.4421C115.445 20.8964 118.954 19.0511 123.098 19.0511C126.655 19.0511 129.288 20.6066 130.313 22.5473L133.824 9.77319H146.4L136.212 46.0098ZM126.754 27.4046C125.632 27.4046 124.512 27.7474 123.879 29.2993C122.951 31.5335 122.123 33.72 122.123 35.9047C122.123 36.9264 122.855 37.7995 124.072 37.7995C125.048 37.7995 125.681 37.5079 126.217 37.1703L128.754 28.4739C128.314 27.8411 127.533 27.4046 126.754 27.4046Z" fill="white" fill-opacity="0.5"/>
<path d="M171.724 34.4484H154.371C154.027 35.8554 153.688 36.8293 153.688 37.9446C153.688 38.4802 153.786 39.8394 155.54 39.8394C157.294 39.8394 158.075 39.1589 158.806 36.5853H171.139C169.579 44.1151 160.61 46.6869 155.102 46.6869C147.642 46.6869 141.841 45.6193 141.841 38.4801C141.841 34.5455 143.839 28.0356 146.473 24.5889C149.641 20.4599 155.15 18.908 160.222 18.908C168.02 18.908 173.088 20.5094 173.088 27.113C173.088 28.718 172.407 32.2619 171.724 34.4484ZM159.147 25.5611C157.587 25.5611 156.516 26.6287 155.833 29.2994H160.999C161.146 28.7656 161.341 27.9402 161.341 27.4541C161.341 25.9976 160.463 25.5611 159.147 25.5611Z" fill="white" fill-opacity="0.5"/>
<path d="M184.364 46.0099H171.787L181.975 9.77319H194.552L184.364 46.0099Z" fill="white" fill-opacity="0.5"/>
<path d="M200.981 46.0099H188.402L195.862 19.5371H208.439L200.981 46.0099ZM209.12 17.0113H196.545L198.592 9.77319H211.169L209.12 17.0113Z" fill="white" fill-opacity="0.5"/>
<path d="M231.732 19.5368L232.827 25.5111H223.201L220.373 35.5668C220.13 36.3427 219.933 37.3131 219.933 37.9459C219.933 39.1107 220.423 39.5014 222.128 39.5014H224.81L222.956 46.0095H211.745C208.039 46.0095 206.625 44.2119 206.625 41.4899C206.625 40.3763 206.772 39.1584 207.163 37.7992L213.987 13.6597H226.565L224.906 19.5368H231.732Z" fill="white" fill-opacity="0.5"/>
<path d="M61.1599 50.0797L64.2946 50.0754L62.2971 56.5924L59.1713 56.5938L61.1599 50.0786V50.0797Z" fill="white" fill-opacity="0.5"/>
<path d="M72.1017 50.0855L76.6875 50.0827L77.8636 54.4292H77.8956L79.2225 50.081L81.9438 50.0781L79.9321 56.581L75.5451 56.5969L74.2731 51.9536H74.2518L72.861 56.5881L70.1379 56.5895L72.1017 50.0867V50.0855Z" fill="white" fill-opacity="0.5"/>
<path d="M87.8878 50.0883L91.34 50.0869L91.9431 54.1824L95.1009 50.0833L98.2958 50.0791L93.0289 56.5838L89.197 56.5865L87.8878 50.0872V50.0883Z" fill="white" fill-opacity="0.5"/>
<path d="M104.306 50.0903L111.438 50.0847L111.035 51.4015L106.935 51.4057L106.538 52.742L110.382 52.7406L109.997 53.9956L106.155 53.997L105.757 55.2873L109.9 55.2831L109.483 56.6017L102.312 56.6073L104.306 50.0903Z" fill="white" fill-opacity="0.5"/>
<path d="M134.936 51.6767L132.493 51.6781L132.977 50.0979L140.992 50.0908L140.509 51.6711L138.068 51.6738L136.571 56.5771L133.44 56.5813L134.936 51.6764V51.6767Z" fill="white" fill-opacity="0.5"/>
<path d="M147.478 50.0818L152.227 50.079L152.458 54.4272H152.477L155.309 50.0772L160.081 50.0715L158.099 56.5885L155.193 56.5914L156.683 51.6829H156.66L153.132 56.5931L150.104 56.5973L149.676 51.6888H149.644L148.156 56.5832L145.496 56.5847L147.478 50.0818Z" fill="white" fill-opacity="0.5"/>
<path d="M180.037 50.0856L184.619 50.0828L185.799 54.4293H185.829L187.156 50.0793L189.876 50.0779L187.885 56.5966L183.441 56.5839L182.207 51.9529H182.187L180.763 56.5856L178.041 56.5885L180.037 50.0856Z" fill="white" fill-opacity="0.5"/>
<path d="M197.393 51.6672L194.948 51.6687L195.432 50.0867L203.449 50.0811L202.967 51.6612L200.524 51.664L199.028 56.5831L195.894 56.5874L197.393 51.6665V51.6672Z" fill="white" fill-opacity="0.5"/>
<path d="M121.046 52.0593C120.977 51.9869 120.974 51.8631 121.002 51.7623C121.105 51.4318 121.52 51.2144 122.182 51.2144C122.572 51.213 123.172 51.2568 123.344 51.3929C123.526 51.5254 123.585 51.7252 123.521 51.9214H126.297C126.624 50.7583 125.889 50.009 122.755 50.0107C119.776 50.015 118.087 50.6506 117.653 52.0699C117.541 52.4411 117.527 52.8971 117.834 53.2047C118.602 53.9647 122.065 54.267 122.357 54.6771C122.416 54.7602 122.439 54.8591 122.404 54.9758C122.244 55.499 121.501 55.6333 120.851 55.6333C120.438 55.6333 119.902 55.5449 119.748 55.3752C119.602 55.2038 119.602 54.9422 119.686 54.7743L116.78 54.78C116.487 55.7892 116.363 56.8391 120.404 56.8373C123.792 56.8331 125.345 56.0066 125.735 54.7216C125.928 54.0924 125.736 53.7442 125.517 53.5197C124.765 52.7473 121.41 52.4627 121.046 52.0597" fill="white" fill-opacity="0.5"/>
<path d="M166.461 50.0921L173.593 50.0864L173.192 51.4033L169.09 51.406L168.693 52.7423L172.537 52.7409L172.152 53.9959L168.31 53.9973L167.912 55.2894L172.055 55.2865L171.638 56.6034L164.467 56.6105L166.461 50.0918V50.0921Z" fill="white" fill-opacity="0.5"/>
<path d="M248.71 19.5368L241.886 34.2058L242.081 19.5368H229.358L231.795 46.0095C231.483 47.5597 230.969 48.4328 229.993 48.8641C228.925 49.3378 226.511 49.2547 225.661 49.207L225.507 49.2156L223.502 56.4077L232.086 56.4162C237.156 56.4162 239.644 53.8762 243.25 48.243L261.581 19.5361H248.71" fill="#231F20"/>
<path d="M211.581 52.044C211.512 51.9698 211.51 51.846 211.537 51.7471C211.642 51.4148 212.055 51.1974 212.717 51.1974C213.107 51.1974 213.707 51.2415 213.879 51.3777C214.063 51.5085 214.122 51.7099 214.056 51.9061H216.832C217.161 50.7431 216.424 49.9918 213.29 49.9954C210.311 49.9982 208.622 50.6353 208.189 52.0547C208.076 52.4241 208.062 52.8818 208.369 53.1876C209.137 53.9494 212.6 54.2517 212.892 54.6618C212.953 54.7431 212.974 54.8439 212.939 54.9605C212.781 55.4837 212.035 55.6162 211.388 55.618C210.973 55.618 210.437 55.5297 210.283 55.3582C210.139 55.1868 210.139 54.9269 210.221 54.759L207.315 54.7618C207.022 55.7729 206.898 56.8228 210.939 56.821C214.328 56.8154 215.88 55.9903 216.272 54.7035C216.464 54.0742 216.273 53.726 216.052 53.5033C215.3 52.7309 211.945 52.4463 211.581 52.0433" fill="white" fill-opacity="0.5"/>
<path d="M250.693 45.5229C249.434 45.5229 248.415 44.5066 248.415 43.2534C248.415 42.0002 249.434 40.9838 250.693 40.9838C251.951 40.9838 252.971 42.0002 252.971 43.2534C252.971 44.5066 251.951 45.5229 250.693 45.5229ZM250.693 40.4941C249.166 40.4941 247.924 41.7333 247.924 43.2534C247.924 44.7735 249.166 46.0125 250.693 46.0125C252.217 46.0125 253.461 44.7735 253.461 43.2534C253.461 41.7333 252.217 40.4941 250.693 40.4941Z" fill="#231F20"/>
<path d="M250.218 43.0631V42.2659H250.597C250.922 42.2588 251.277 42.28 251.277 42.6618C251.277 43.0436 250.922 43.0631 250.597 43.0631H250.218ZM251.802 42.6831C251.802 42.1334 251.481 41.824 250.793 41.824H249.718V44.6698H250.218V43.505H250.597L251.312 44.6698H251.862L251.115 43.4643C251.507 43.4167 251.802 43.1762 251.802 42.6831Z" fill="#231F20"/>
<path d="M248.691 19.6012L241.888 34.2206L242.083 19.6012H229.404L231.833 45.982C231.522 47.5268 231.01 48.3964 230.037 48.8277C228.973 49.2978 226.567 49.2148 225.719 49.1671L225.567 49.1756L223.568 56.3448L232.122 56.3519C237.176 56.3519 239.654 53.8225 243.248 48.2087L261.515 19.6008H248.691V19.6012Z" fill="white" fill-opacity="0.5"/>
</g>
<defs>
<filter id="filter0_d_1_820" x="-1" y="0" width="268" height="66.2515" filterUnits="userSpaceOnUse" color-interpolation-filters="sRGB">
<feFlood flood-opacity="0" result="BackgroundImageFix"/>
<feColorMatrix in="SourceAlpha" type="matrix" values="0 0 0 0 0 0 0 0 0 0 0 0 0 0 0 0 0 0 127 0" result="hardAlpha"/>
<feOffset dy="4"/>
<feGaussianBlur stdDeviation="2"/>
<feComposite in2="hardAlpha" operator="out"/>
<feColorMatrix type="matrix" values="0 0 0 0 0 0 0 0 0 0 0 0 0 0 0 0 0 0 0.25 0"/>
<feBlend mode="normal" in2="BackgroundImageFix" result="effect1_dropShadow_1_820"/>
<feBlend mode="normal" in="SourceGraphic" in2="effect1_dropShadow_1_820" result="shape"/>
</filter>
</defs>
</svg>
